<svg id="Camada_1" data-name="Camada 1" xmlns="http://www.w3.org/2000/svg" viewBox="0 0 128.49 107.56"><defs><style>.cls-1{fill:#272424;}.cls-2,.cls-3{fill:#b0b0af;}.cls-3{stroke:#b0b0af;stroke-miterlimit:10;stroke-width:0.1px;}</style></defs><title>ass-guilherme-espanhol</title><path class="cls-1" d="M25.76,50.19c1.59.94,4.18.22,5.52-.88,2.32-1.92,2.88-5.73,3.28-8.5.64-4.41,1.62-10.18-1.5-13.85-3.26-3.83-9.43-1.95-13.16.1C13.67,30.46,9,37.4,9,44.57A17.2,17.2,0,0,0,20.49,60.2a9.36,9.36,0,0,0,10.05-3.26c3.29-4.29,4.09-10.5,4.69-15.7.28-2.38.45-4.78.6-7.17,0-.45-.12-3.16.35-3.39l-1.46.39c1,0,2,8.16,2.07,8.89,1.19,7.29,2,14.66,2.48,22a177.94,177.94,0,0,1,.1,26A81,81,0,0,1,37.72,99.4a46.83,46.83,0,0,1-1.46,5.12c-.15.42-.34,1.59-.86,1.8l1.46-.39c-1.4.17-1.45-11.4-1.46-12.29a140.65,140.65,0,0,1,1.49-23.82,41.85,41.85,0,0,1,2.43-9.55c.93-2.26,2.2-3.26,3.94-4.8,2.14-1.9,3.26-5,4.17-7.62a71.28,71.28,0,0,0,2.88-12.06c1.34-8.18,2-16.87.75-25.1-.63-4.07-2.13-8.86-7.14-7.54C39.09,4.43,36.81,8.7,36.1,13.44c-1.5,10.07,4.17,20.24,9.89,28,2.82,3.84,6.63,7.1,8.85,11.35a6.66,6.66,0,0,1,.72,5.41,6,6,0,0,1-3.45,3.1c-.26.12-.53.21-.79.3-.72.25.62-.12-.15,0-.54.12-1.09.2-1.64.28a25.81,25.81,0,0,1-3.29.18c-3.42,0-7.77-.46-10.57-2.63-3.21-2.5,1.8-5,3.77-5.78,5.33-2.2,12.63-4.51,17.26.18,2.48,2.52,3.6,6.44,3.92,9.89.1,1.1,2.86.13,3.39-.06,2.12-.76,2.81-4.07,3.24-5.92.32-1.35.13-6.15,1.71-7l-1.43.39c2.09-.43,4,11,4.29,12.68.38,2,4.18,2.52,5.59,2.18,6.35-1.54,9.28-8.17,11.63-13.7A64.56,64.56,0,0,0,94.5,24.21c-.21-5.22-2.64-27.9-12.74-22-2.28,1.33-3.52,4.31-4.46,6.62a72.4,72.4,0,0,0-3.82,15.36c-1.35,8.1-2.58,16.8,4.33,22.74C86,54,99.59,53.52,109.68,52.33a58.23,58.23,0,0,0,9.17-1.77c3.75-1.05-4.7-4.58-2.49-5.63l-1.25.33c.37-.09,3.37.12,3,.4-.91.6.66-.09-.17.1s-1.48.3-2.23.42c-4.51.78-9.07,1.29-13.62,1.76-11.62,1.21-23.45,2.17-35.14,1.64-2.19-.1-15.31-.65-10.37-5.5,3.37-3.32,8.61-5.14,12.88-6.91C74.63,35,80.27,33.11,86,33.46c1.63.1,4.09.47,5,2,.08.13,1.4-.49,1.46-.39-1.07-1.81-4-2-5.84-2.08a33.89,33.89,0,0,0-10.32,1.64c-6.77,1.89-14.28,4.62-20,8.81-1.69,1.22-3.61,3.32-1.06,4.73C58.29,49.91,62.63,49.85,66,50c11.71.49,23.56-.51,35.21-1.74,1-.11,18.5-1.68,18.38-3.13-.07-.74-3.33-.2-4,0-2.67.72,1,3.09,2,4,.25.23,1.3,1.15.69,1.48a3.4,3.4,0,0,1-.56.21c.29-.09-.09,0-.77.16a69.45,69.45,0,0,1-7.59,1.13C98,53.28,79.73,53.15,74.8,40.21c-1.61-4.21-1-8.71-.37-13a92.93,92.93,0,0,1,3.66-16.9c.94-2.79,2.16-5.89,4.4-7.91a5.42,5.42,0,0,1,1.09-.75c.64-.33-.86.11-.19,0a3.25,3.25,0,0,1,.54,0,4.24,4.24,0,0,1,2.27,1c4.28,3.42,5.52,10.76,6.27,15.8A60.21,60.21,0,0,1,91,43.3a68,68,0,0,1-6.61,16c-1.47,2.52-3.39,5.21-6.11,6.48-.8.37,1.21-.16,0,0a5.67,5.67,0,0,1-.58,0,5,5,0,0,1-1.08-.12A5.25,5.25,0,0,1,74.84,65a5.9,5.9,0,0,1-1.56-1.47,6.34,6.34,0,0,1-.37-1.86c-.3-1.39-.62-2.77-1-4.15s-1-6.06-2.77-6.68-2.39,1.55-2.6,2.59c-.62,3-.52,9.44-4.21,10.77l.93-.25-.18,0,.53-.13c-1.43.25-1.51-.25-1.67-1.4a17.77,17.77,0,0,0-3-8c-4.44-6.17-12.89-3-18.83-1.11-1.77.57-8.7,2.76-6.57,5.86,1.79,2.59,6.65,3,9.44,3.25,6.07.46,17.61-1.41,13.32-10-2.11-4.25-6-7.58-8.85-11.34A55.38,55.38,0,0,1,38.9,25.17c-2-6.23-2.71-14.46,1.89-19.78a8.2,8.2,0,0,1,2.4-1.9c.94-.49-.07-.15.65-.22a4.49,4.49,0,0,1,1.46.12c2.13.46,3,2.62,3.59,4.5,2.26,7.33,1.46,16,.62,23.46s-2.06,16-6.08,22.47c-1.17,1.9-3.13,2.74-4.36,4.52-1.61,2.32-2.31,5.3-2.92,8C34.42,74.05,34,82.11,33.93,90c0,3.42,0,6.85.24,10.27a19,19,0,0,0,.83,5.67c.28.71,1.67.32,2-.14.77-1,1.05-2.73,1.39-3.89a57.22,57.22,0,0,0,1.45-6.48C41.56,85.68,41.47,75.63,41,65.8a240.62,240.62,0,0,0-2.73-26.23c-.4-2.46-.81-4.94-1.44-7.35-.36-1.4-.33-1.64-1.73-1.25-1,.27-.66,2.66-.71,3.49-.2,3.09-.44,6.17-.86,9.23-.75,5.48-2.08,14-7.88,16.45-1.12.48-3-.12-4.08-.46a14.33,14.33,0,0,1-5.83-3.75,17.69,17.69,0,0,1-5.2-11.3C10.09,37.37,15,30.47,21,26.86a19.94,19.94,0,0,1,2.06-1.05c.44-.19.9-.35,1.36-.5-1,.33.33,0,.6-.08a8.45,8.45,0,0,1,4.05.38c3.58,1.28,4.51,5,4.48,8.41,0,4.48-.21,9.51-2.22,13.62A6.4,6.4,0,0,1,29.5,50c-.46.34-1.41.47-.07.24a2.9,2.9,0,0,1-.93,0,3.2,3.2,0,0,1-1.28-.4c-.31-.19-1.17.56-1.46.39Z"/><path class="cls-2" d="M7.05,98.21a5,5,0,0,0,1.23-.13,4.65,4.65,0,0,0,1-.35v-2H7.87a.43.43,0,0,1-.31-.11.38.38,0,0,1-.12-.28V94.14h3.72v4.52a5.87,5.87,0,0,1-.89.54,5,5,0,0,1-1,.37,7.4,7.4,0,0,1-1.12.22,10.1,10.1,0,0,1-1.28.08,5.93,5.93,0,0,1-2.25-.43,5.25,5.25,0,0,1-2.95-3,6.15,6.15,0,0,1-.42-2.3,6.37,6.37,0,0,1,.41-2.31A5.26,5.26,0,0,1,2.84,90a5.42,5.42,0,0,1,1.83-1.17,6.59,6.59,0,0,1,2.41-.42,6.25,6.25,0,0,1,2.37.41,5.44,5.44,0,0,1,1.7,1.05l-.6.95a.54.54,0,0,1-.47.28A.71.71,0,0,1,9.7,91l-.51-.3a3.76,3.76,0,0,0-.57-.25,5.23,5.23,0,0,0-.71-.18,4.84,4.84,0,0,0-.9-.07,3.73,3.73,0,0,0-1.49.28,3,3,0,0,0-1.14.8,3.48,3.48,0,0,0-.73,1.24,4.87,4.87,0,0,0-.25,1.62,5,5,0,0,0,.27,1.72,3.67,3.67,0,0,0,.75,1.28,3.57,3.57,0,0,0,1.16.79A3.92,3.92,0,0,0,7.05,98.21Z"/><path class="cls-2" d="M14.74,91.81v5A1.73,1.73,0,0,0,15.07,98a1.27,1.27,0,0,0,1,.39,2,2,0,0,0,.93-.22,3.25,3.25,0,0,0,.82-.6V91.81h1.91v7.93H18.57a.47.47,0,0,1-.49-.35L18,98.76a3.57,3.57,0,0,1-.51.45,2.5,2.5,0,0,1-.56.35,2.69,2.69,0,0,1-.64.22,2.94,2.94,0,0,1-.74.09,3,3,0,0,1-1.15-.22,2.26,2.26,0,0,1-.83-.63,2.64,2.64,0,0,1-.52-1,4.28,4.28,0,0,1-.17-1.22v-5Z"/><path class="cls-2" d="M24.1,89.5A1.19,1.19,0,0,1,24,90a1.31,1.31,0,0,1-.27.38,1.16,1.16,0,0,1-.39.26,1.12,1.12,0,0,1-.48.1,1.1,1.1,0,0,1-.47-.1,1.22,1.22,0,0,1-.38-.26,1.28,1.28,0,0,1-.26-.38,1.18,1.18,0,0,1-.09-.46,1.28,1.28,0,0,1,.09-.48,1.33,1.33,0,0,1,.26-.39,1.7,1.7,0,0,1,.38-.26,1.27,1.27,0,0,1,.47-.09,1.28,1.28,0,0,1,.48.09,1.56,1.56,0,0,1,.39.26A1.36,1.36,0,0,1,24,89,1.29,1.29,0,0,1,24.1,89.5Zm-.29,2.31v7.93H21.9V91.81Z"/><path class="cls-2" d="M28,88.25V99.74H26.09V88.25Z"/><path class="cls-2" d="M30.16,99.74V88.25h1.91v4.42a4.16,4.16,0,0,1,1-.71,3,3,0,0,1,1.3-.27,2.82,2.82,0,0,1,1.16.22,2.25,2.25,0,0,1,.84.62,2.79,2.79,0,0,1,.51,1,4.21,4.21,0,0,1,.17,1.21v5H35.16v-5a1.67,1.67,0,0,0-.34-1.12,1.22,1.22,0,0,0-1-.4,2,2,0,0,0-.93.23,3.3,3.3,0,0,0-.82.61v5.73Z"/><path class="cls-2" d="M42.23,91.69a3.85,3.85,0,0,1,1.38.24,2.92,2.92,0,0,1,1.08.7,3.07,3.07,0,0,1,.71,1.12,4.3,4.3,0,0,1,.26,1.53,3.21,3.21,0,0,1,0,.36.63.63,0,0,1-.07.23.26.26,0,0,1-.14.11.56.56,0,0,1-.21,0h-4.9A2.7,2.7,0,0,0,41,97.81a2.08,2.08,0,0,0,1.52.57,2.42,2.42,0,0,0,.8-.11,3.62,3.62,0,0,0,.59-.24l.44-.24a.73.73,0,0,1,.36-.1.4.4,0,0,1,.2,0,.47.47,0,0,1,.15.13l.56.7a3.2,3.2,0,0,1-.71.62,4,4,0,0,1-.83.4,4.27,4.27,0,0,1-.87.22,6.44,6.44,0,0,1-.86.06,4.09,4.09,0,0,1-1.54-.28,3.42,3.42,0,0,1-1.24-.81,3.79,3.79,0,0,1-.82-1.33,5.16,5.16,0,0,1-.3-1.83,4.32,4.32,0,0,1,.26-1.53,3.47,3.47,0,0,1,.75-1.24,3.42,3.42,0,0,1,1.2-.84A3.87,3.87,0,0,1,42.23,91.69Zm0,1.37a1.73,1.73,0,0,0-1.3.47,2.23,2.23,0,0,0-.6,1.33h3.58a2.32,2.32,0,0,0-.1-.7,1.66,1.66,0,0,0-.31-.57A1.35,1.35,0,0,0,43,93.2,1.76,1.76,0,0,0,42.26,93.06Z"/><path class="cls-2" d="M47.21,99.74V91.81h1.12a.61.61,0,0,1,.41.11.64.64,0,0,1,.16.37l.11,1a3.84,3.84,0,0,1,1-1.16,2.12,2.12,0,0,1,1.28-.43,1.69,1.69,0,0,1,1,.27L52,93.36a.32.32,0,0,1-.1.2.33.33,0,0,1-.21.06,1.68,1.68,0,0,1-.32-.05,1.88,1.88,0,0,0-.53-.06,1.6,1.6,0,0,0-1,.33,2.63,2.63,0,0,0-.72,1v4.94Z"/><path class="cls-2" d="M53.53,99.74V91.81h1.16a.48.48,0,0,1,.49.35l.12.59a4.44,4.44,0,0,1,.44-.43,2.79,2.79,0,0,1,1-.55,2.3,2.3,0,0,1,.66-.08,1.84,1.84,0,0,1,1.23.4,2.45,2.45,0,0,1,.72,1.08,2.36,2.36,0,0,1,.47-.67,2.23,2.23,0,0,1,.61-.46,2.89,2.89,0,0,1,.71-.27,3.82,3.82,0,0,1,.75-.08,3.06,3.06,0,0,1,1.17.2,2.24,2.24,0,0,1,.86.59,2.52,2.52,0,0,1,.52.94,3.85,3.85,0,0,1,.19,1.27v5H62.76v-5a1.67,1.67,0,0,0-.34-1.14,1.22,1.22,0,0,0-1-.38,1.33,1.33,0,0,0-.54.1,1.51,1.51,0,0,0-.45.29,1.43,1.43,0,0,0-.29.48,1.88,1.88,0,0,0-.11.65v5H58.14v-5a1.77,1.77,0,0,0-.32-1.16,1.2,1.2,0,0,0-1-.36,1.45,1.45,0,0,0-.76.21,2.2,2.2,0,0,0-.67.56v5.8Z"/><path class="cls-2" d="M69.82,91.69a3.85,3.85,0,0,1,1.38.24,3,3,0,0,1,1.09.7A3.2,3.2,0,0,1,73,93.75a4.31,4.31,0,0,1,.25,1.53c0,.15,0,.27,0,.36a.9.9,0,0,1-.07.23A.3.3,0,0,1,73,96a.67.67,0,0,1-.22,0h-4.9a2.75,2.75,0,0,0,.66,1.79,2.06,2.06,0,0,0,1.52.57,2.46,2.46,0,0,0,.8-.11,5.28,5.28,0,0,0,1-.48.76.76,0,0,1,.37-.1.4.4,0,0,1,.2,0,.47.47,0,0,1,.15.13l.55.7a3,3,0,0,1-.71.62,3.66,3.66,0,0,1-.82.4,4.62,4.62,0,0,1-.87.22,6.58,6.58,0,0,1-.87.06,4,4,0,0,1-1.53-.28,3.34,3.34,0,0,1-1.24-.81,3.81,3.81,0,0,1-.83-1.33,5.16,5.16,0,0,1-.3-1.83,4.55,4.55,0,0,1,.26-1.53A3.64,3.64,0,0,1,67,92.84a3.33,3.33,0,0,1,1.2-.84A3.86,3.86,0,0,1,69.82,91.69Zm0,1.37a1.75,1.75,0,0,0-1.31.47,2.35,2.35,0,0,0-.6,1.33h3.59a2.32,2.32,0,0,0-.1-.7,1.66,1.66,0,0,0-.31-.57,1.38,1.38,0,0,0-.53-.39A1.72,1.72,0,0,0,69.86,93.06Z"/><path class="cls-2" d="M83.89,90.6a.61.61,0,0,1-.2.24.53.53,0,0,1-.26.07.67.67,0,0,1-.35-.12l-.46-.27a3.48,3.48,0,0,0-.61-.27,2.59,2.59,0,0,0-.83-.12,2.49,2.49,0,0,0-.76.11,1.56,1.56,0,0,0-.54.29,1.31,1.31,0,0,0-.33.44,1.52,1.52,0,0,0-.1.57,1,1,0,0,0,.22.66,2,2,0,0,0,.58.45,6,6,0,0,0,.83.33l.94.31a7.89,7.89,0,0,1,1,.39,3.42,3.42,0,0,1,.83.55,2.48,2.48,0,0,1,.58.83,2.79,2.79,0,0,1,.22,1.18,3.7,3.7,0,0,1-.26,1.42,3.27,3.27,0,0,1-.75,1.15,3.48,3.48,0,0,1-1.22.77,4.46,4.46,0,0,1-1.65.29,5.35,5.35,0,0,1-1-.11,5.41,5.41,0,0,1-1-.3,4.79,4.79,0,0,1-1.63-1.06l.6-1a.91.91,0,0,1,.21-.18.48.48,0,0,1,.26-.07.77.77,0,0,1,.42.15l.53.36a4.85,4.85,0,0,0,.72.35,2.93,2.93,0,0,0,1,.16,2,2,0,0,0,1.38-.43,1.52,1.52,0,0,0,.49-1.21,1.13,1.13,0,0,0-.22-.71,1.64,1.64,0,0,0-.59-.47A3.79,3.79,0,0,0,81,95l-1-.29a8.33,8.33,0,0,1-.94-.37,3,3,0,0,1-.83-.56,2.82,2.82,0,0,1-.58-.87,3.28,3.28,0,0,1-.22-1.29,3.08,3.08,0,0,1,.24-1.19,3,3,0,0,1,.71-1,3.52,3.52,0,0,1,1.15-.72,4.16,4.16,0,0,1,1.55-.27,5.17,5.17,0,0,1,1.83.31,4,4,0,0,1,1.42.87Z"/><path class="cls-2" d="M88.41,89.5a1,1,0,0,1-.11.46,1.12,1.12,0,0,1-.26.38,1.16,1.16,0,0,1-.39.26,1.12,1.12,0,0,1-.48.1,1.07,1.07,0,0,1-.47-.1,1.25,1.25,0,0,1-.64-.64,1,1,0,0,1-.1-.46,1.12,1.12,0,0,1,.1-.48,1.16,1.16,0,0,1,.26-.39,1.5,1.5,0,0,1,.38-.26,1.23,1.23,0,0,1,.47-.09,1.28,1.28,0,0,1,.48.09,1.56,1.56,0,0,1,.39.26,1.16,1.16,0,0,1,.26.39A1.13,1.13,0,0,1,88.41,89.5Zm-.29,2.31v7.93H86.21V91.81Z"/><path class="cls-2" d="M92.31,88.25V99.74H90.4V88.25Z"/><path class="cls-2" d="M98.44,99.74H96.71l-3.16-7.93h1.59a.58.58,0,0,1,.35.1.51.51,0,0,1,.2.26l1.53,4.23a7.5,7.5,0,0,1,.22.73c.06.24.11.47.16.71,0-.24.1-.47.15-.71A7.63,7.63,0,0,1,98,96.4l1.57-4.23a.51.51,0,0,1,.2-.26.52.52,0,0,1,.33-.1h1.51Z"/><path class="cls-2" d="M105.74,91.69a3.85,3.85,0,0,1,1.38.24,2.92,2.92,0,0,1,1.08.7,3.07,3.07,0,0,1,.71,1.12,4.3,4.3,0,0,1,.26,1.53,3.21,3.21,0,0,1,0,.36.63.63,0,0,1-.07.23.26.26,0,0,1-.14.11.56.56,0,0,1-.21,0h-4.9a2.7,2.7,0,0,0,.65,1.79,2.08,2.08,0,0,0,1.52.57,2.38,2.38,0,0,0,.8-.11,3.62,3.62,0,0,0,.59-.24l.44-.24a.74.74,0,0,1,.37-.1.45.45,0,0,1,.2,0,.57.57,0,0,1,.14.13l.56.7a3.2,3.2,0,0,1-.71.62,3.88,3.88,0,0,1-.82.4,4.53,4.53,0,0,1-.88.22,6.33,6.33,0,0,1-.86.06,4.13,4.13,0,0,1-1.54-.28,3.42,3.42,0,0,1-1.24-.81,3.79,3.79,0,0,1-.82-1.33,5.16,5.16,0,0,1-.3-1.83,4.32,4.32,0,0,1,.26-1.53,3.61,3.61,0,0,1,.75-1.24,3.42,3.42,0,0,1,1.2-.84A3.87,3.87,0,0,1,105.74,91.69Zm0,1.37a1.74,1.74,0,0,0-1.31.47,2.23,2.23,0,0,0-.6,1.33h3.58a2.32,2.32,0,0,0-.1-.7,1.51,1.51,0,0,0-.31-.57,1.35,1.35,0,0,0-.52-.39A1.72,1.72,0,0,0,105.78,93.06Z"/><path class="cls-2" d="M113,89.5a1,1,0,0,1-.1.46,1.15,1.15,0,0,1-.27.38,1.16,1.16,0,0,1-.39.26,1.1,1.1,0,0,1-.47.1,1,1,0,0,1-.47-.1,1.16,1.16,0,0,1-.39-.26,1.25,1.25,0,0,1-.25-.38,1,1,0,0,1-.1-.46,1.12,1.12,0,0,1,.1-.48,1.3,1.3,0,0,1,.25-.39,1.56,1.56,0,0,1,.39-.26,1.19,1.19,0,0,1,.47-.09,1.27,1.27,0,0,1,.47.09,1.56,1.56,0,0,1,.39.26,1.19,1.19,0,0,1,.27.39A1.12,1.12,0,0,1,113,89.5Zm-.28,2.31v7.93h-1.91V91.81Z"/><path class="cls-2" d="M114.91,99.74V91.81H116a.59.59,0,0,1,.41.11.64.64,0,0,1,.16.37l.11,1a3.84,3.84,0,0,1,1-1.16,2.12,2.12,0,0,1,1.28-.43,1.67,1.67,0,0,1,1,.27l-.25,1.43a.32.32,0,0,1-.1.2.33.33,0,0,1-.21.06,1.68,1.68,0,0,1-.32-.05,1.88,1.88,0,0,0-.53-.06,1.6,1.6,0,0,0-1,.33,2.63,2.63,0,0,0-.72,1v4.94Z"/><path class="cls-2" d="M127.22,99.74h-.86a.89.89,0,0,1-.43-.08.5.5,0,0,1-.23-.33l-.17-.56a5.77,5.77,0,0,1-.59.47,3,3,0,0,1-.6.35,3.3,3.3,0,0,1-.65.21,4.61,4.61,0,0,1-.78.07,3,3,0,0,1-.92-.14,2.05,2.05,0,0,1-.74-.41,1.8,1.8,0,0,1-.47-.67,2.46,2.46,0,0,1-.17-.94,1.93,1.93,0,0,1,.23-.89,2.28,2.28,0,0,1,.79-.79,5.32,5.32,0,0,1,1.46-.59,9.62,9.62,0,0,1,2.27-.23v-.47a1.77,1.77,0,0,0-.34-1.18,1.23,1.23,0,0,0-1-.39,2.37,2.37,0,0,0-.77.11,2.73,2.73,0,0,0-.54.24l-.42.25a.88.88,0,0,1-.43.1.54.54,0,0,1-.33-.1.64.64,0,0,1-.22-.24l-.35-.61a4.69,4.69,0,0,1,3.3-1.26,3.22,3.22,0,0,1,1.24.23,2.54,2.54,0,0,1,.92.64,2.56,2.56,0,0,1,.58,1,3.69,3.69,0,0,1,.2,1.23Zm-3.71-1.19a3.1,3.1,0,0,0,.54,0,2.6,2.6,0,0,0,.47-.16,2.65,2.65,0,0,0,.42-.26,4.64,4.64,0,0,0,.42-.37V96.38a7.82,7.82,0,0,0-1.4.1,3.73,3.73,0,0,0-.9.27,1.14,1.14,0,0,0-.48.38.85.85,0,0,0-.15.48.82.82,0,0,0,.3.72A1.26,1.26,0,0,0,123.51,98.55Z"/><path class="cls-3" d="M30.9,80.54a3.87,3.87,0,0,1-.71.46,2.8,2.8,0,0,1-.71.23,4.72,4.72,0,0,1-.77.06,2.66,2.66,0,0,1-1.14-.23,2.28,2.28,0,0,1-.81-.63,2.88,2.88,0,0,1-.48-1,4.29,4.29,0,0,1-.16-1.22,5.44,5.44,0,0,1,.13-1.2,5.23,5.23,0,0,1,.36-1.12,5.32,5.32,0,0,1,.57-1,4.33,4.33,0,0,1,.76-.78,3.64,3.64,0,0,1,.92-.52,3,3,0,0,1,1.05-.19,2.73,2.73,0,0,1,.67.08,2.32,2.32,0,0,1,.56.21,2.15,2.15,0,0,1,.46.33,2.65,2.65,0,0,1,.38.43l-.21.25a.23.23,0,0,1-.16.08.27.27,0,0,1-.19-.12,2.81,2.81,0,0,0-.3-.26,2,2,0,0,0-.49-.27,2,2,0,0,0-.75-.12,2.22,2.22,0,0,0-1.19.34,3.42,3.42,0,0,0-1,.93,4.89,4.89,0,0,0-.64,1.34,5.21,5.21,0,0,0-.23,1.58,3.76,3.76,0,0,0,.12,1,2.15,2.15,0,0,0,.36.78,1.73,1.73,0,0,0,.63.51,1.87,1.87,0,0,0,.88.19,2.7,2.7,0,0,0,.73-.09,2.94,2.94,0,0,0,.57-.22,2,2,0,0,0,.44-.29l.33-.28.25-.22a.3.3,0,0,1,.19-.09.27.27,0,0,1,.16.08l.16.2A6.48,6.48,0,0,1,30.9,80.54Z"/><path class="cls-3" d="M35.42,81.29a2.73,2.73,0,0,1-1.12-.22,2.26,2.26,0,0,1-.85-.61,2.65,2.65,0,0,1-.55-1,4.05,4.05,0,0,1-.2-1.31A5.57,5.57,0,0,1,33,76.38a4.84,4.84,0,0,1,.77-1.5,3.92,3.92,0,0,1,1.19-1,3,3,0,0,1,1.52-.39,2.85,2.85,0,0,1,1.11.22,2.53,2.53,0,0,1,.86.62,3,3,0,0,1,.55,1,4,4,0,0,1,.19,1.3,5.51,5.51,0,0,1-.28,1.77,5,5,0,0,1-.77,1.51,3.94,3.94,0,0,1-1.19,1A3,3,0,0,1,35.42,81.29Zm.06-.57a2.22,2.22,0,0,0,1.21-.35,3.2,3.2,0,0,0,.94-.93,4.44,4.44,0,0,0,.6-1.32,5.67,5.67,0,0,0,.21-1.54,3,3,0,0,0-.54-1.89A1.86,1.86,0,0,0,36.39,74a2.13,2.13,0,0,0-.84.16,2.45,2.45,0,0,0-.72.44,3.8,3.8,0,0,0-.59.66,4.54,4.54,0,0,0-.44.85,5.29,5.29,0,0,0-.37,2A3,3,0,0,0,34,80.05,1.85,1.85,0,0,0,35.48,80.72Z"/><path class="cls-3" d="M43,81.29a2.73,2.73,0,0,1-1.12-.22,2.37,2.37,0,0,1-.86-.61,3,3,0,0,1-.55-1,4.06,4.06,0,0,1-.19-1.31,5.86,5.86,0,0,1,.27-1.78,5.08,5.08,0,0,1,.78-1.5,3.92,3.92,0,0,1,1.19-1A3,3,0,0,1,44,73.45a2.89,2.89,0,0,1,1.11.22,2.53,2.53,0,0,1,.86.62,3,3,0,0,1,.55,1,4,4,0,0,1,.19,1.3,5.51,5.51,0,0,1-.28,1.77,5,5,0,0,1-.77,1.51,4.06,4.06,0,0,1-1.19,1A3,3,0,0,1,43,81.29Zm.06-.57a2.25,2.25,0,0,0,1.21-.35,3.2,3.2,0,0,0,.94-.93,4.44,4.44,0,0,0,.6-1.32A5.67,5.67,0,0,0,46,76.58a2.9,2.9,0,0,0-.55-1.89A1.83,1.83,0,0,0,44,74a2.13,2.13,0,0,0-.84.16,2.45,2.45,0,0,0-.72.44,3.43,3.43,0,0,0-.59.66,4,4,0,0,0-.44.85,5.29,5.29,0,0,0-.37,2,3,3,0,0,0,.53,1.89A1.87,1.87,0,0,0,43,80.72Z"/><path class="cls-3" d="M48,81.19l.92-7.64h.33a.25.25,0,0,1,.27.28l-.22,2.26a5.8,5.8,0,0,1,1.19-1.92,2,2,0,0,1,1.42-.68,1.93,1.93,0,0,1,.65.13l-.13.68a2.14,2.14,0,0,0-.66-.13,1.86,1.86,0,0,0-1.47.81,7.12,7.12,0,0,0-1.13,2.33l-.45,3.88Z"/><path class="cls-3" d="M57.86,81.19a.25.25,0,0,1-.21-.07.25.25,0,0,1,0-.17l.25-2.42a7.32,7.32,0,0,1-.67,1.13,5.16,5.16,0,0,1-.79.87,3.25,3.25,0,0,1-.86.56,2.31,2.31,0,0,1-.92.2,1.86,1.86,0,0,1-.87-.19,1.82,1.82,0,0,1-.63-.54,2.65,2.65,0,0,1-.38-.85,4.36,4.36,0,0,1-.13-1.12,6.08,6.08,0,0,1,.12-1.19,6.69,6.69,0,0,1,.35-1.18,5.68,5.68,0,0,1,.55-1.07,4.54,4.54,0,0,1,.74-.88,3.5,3.5,0,0,1,.9-.59,2.5,2.5,0,0,1,1.05-.22,2.46,2.46,0,0,1,1.14.27,2.32,2.32,0,0,1,.86.82l.56-4.49h.7L58.21,81.19Zm-3-.49a1.79,1.79,0,0,0,.87-.24,3.49,3.49,0,0,0,.85-.69,6,6,0,0,0,.76-1.06A8.75,8.75,0,0,0,58,77.33l.27-2.21a2,2,0,0,0-.82-.84,2.25,2.25,0,0,0-1-.24,2,2,0,0,0-.89.19,2.81,2.81,0,0,0-.76.53,4.29,4.29,0,0,0-.61.78,6.2,6.2,0,0,0-.44.94,7.47,7.47,0,0,0-.28,1,6,6,0,0,0-.09,1,2.85,2.85,0,0,0,.39,1.6A1.29,1.29,0,0,0,54.85,80.7Z"/><path class="cls-3" d="M62.48,73.58l-.93,7.61h-.71l.93-7.61ZM63,71a.58.58,0,0,1-.06.26.6.6,0,0,1-.14.21,1.37,1.37,0,0,1-.21.15.69.69,0,0,1-.24.05.7.7,0,0,1-.25-.05.75.75,0,0,1-.2-.15.6.6,0,0,1-.14-.21.59.59,0,0,1,0-.52.6.6,0,0,1,.14-.21.48.48,0,0,1,.2-.15.54.54,0,0,1,.25-.06.53.53,0,0,1,.24.06.85.85,0,0,1,.21.14.64.64,0,0,1,.14.22A.58.58,0,0,1,63,71Z"/><path class="cls-3" d="M64.12,81.19,65,73.55h.33c.17,0,.26.1.26.28L65.41,76A7.14,7.14,0,0,1,66.1,75a4.73,4.73,0,0,1,.8-.81,3.67,3.67,0,0,1,.86-.51,2.61,2.61,0,0,1,.9-.17,1.52,1.52,0,0,1,1.28.56,2.63,2.63,0,0,1,.43,1.6s0,.1,0,.16,0,.15,0,.28,0,.3-.06.54-.06.54-.11.94-.1.89-.17,1.48-.15,1.32-.25,2.17H69l.57-4.87a5.43,5.43,0,0,0,.05-.67,2,2,0,0,0-.3-1.18,1.07,1.07,0,0,0-.93-.4,2,2,0,0,0-.86.21,3.46,3.46,0,0,0-.85.63,5.22,5.22,0,0,0-.77,1,7.26,7.26,0,0,0-.63,1.28l-.47,4Z"/><path class="cls-3" d="M77.1,81.19h-.35a.25.25,0,0,1-.21-.07.31.31,0,0,1-.05-.17l.25-2.39a7.34,7.34,0,0,1-.64,1.11,4.89,4.89,0,0,1-.74.86,3.11,3.11,0,0,1-.83.56,2.19,2.19,0,0,1-.91.2,1.74,1.74,0,0,1-.84-.19,1.6,1.6,0,0,1-.6-.53,2.51,2.51,0,0,1-.36-.83,4.72,4.72,0,0,1-.12-1.11,5.2,5.2,0,0,1,.16-1.3,6.1,6.1,0,0,1,.48-1.21,5.73,5.73,0,0,1,.74-1.06,5,5,0,0,1,1-.83,4.2,4.2,0,0,1,1.1-.55,3.59,3.59,0,0,1,1.22-.2,4,4,0,0,1,.86.08,2.72,2.72,0,0,1,.78.28Zm-3.24-.5a1.74,1.74,0,0,0,.86-.25,3,3,0,0,0,.81-.69,6.14,6.14,0,0,0,.72-1.08,9.51,9.51,0,0,0,.61-1.4l.38-3.1a3.11,3.11,0,0,0-2,0,4.18,4.18,0,0,0-.91.48,4.86,4.86,0,0,0-.78.73,5.25,5.25,0,0,0-.61.92,4.64,4.64,0,0,0-.55,2.2,3.07,3.07,0,0,0,.35,1.59A1.2,1.2,0,0,0,73.86,80.69Z"/><path class="cls-3" d="M84.48,81.19a.23.23,0,0,1-.2-.07.25.25,0,0,1-.06-.17l.25-2.42a7.32,7.32,0,0,1-.67,1.13,5.12,5.12,0,0,1-.78.87,3.3,3.3,0,0,1-.87.56,2.26,2.26,0,0,1-.91.2,1.87,1.87,0,0,1-.88-.19,1.79,1.79,0,0,1-.62-.54,2.45,2.45,0,0,1-.38-.85,4.35,4.35,0,0,1-.14-1.12,6.1,6.1,0,0,1,.13-1.19,6.67,6.67,0,0,1,.34-1.18,6.38,6.38,0,0,1,.56-1.07,4.5,4.5,0,0,1,.73-.88,3.55,3.55,0,0,1,.91-.59,2.58,2.58,0,0,1,2.19,0,2.3,2.3,0,0,1,.85.82l.56-4.49h.7L84.83,81.19Zm-3-.49a1.79,1.79,0,0,0,.88-.24,3.27,3.27,0,0,0,.84-.69A6,6,0,0,0,84,78.71a11,11,0,0,0,.63-1.38l.27-2.21a2,2,0,0,0-.82-.84A2.31,2.31,0,0,0,83,74a2.11,2.11,0,0,0-.9.19,2.81,2.81,0,0,0-.76.53,4.25,4.25,0,0,0-.6.78,5.55,5.55,0,0,0-.72,2,6.07,6.07,0,0,0-.1,1,2.85,2.85,0,0,0,.39,1.6A1.29,1.29,0,0,0,81.47,80.7Z"/><path class="cls-3" d="M89.81,81.29a2.73,2.73,0,0,1-1.12-.22,2.26,2.26,0,0,1-.85-.61,2.79,2.79,0,0,1-.55-1,4.05,4.05,0,0,1-.2-1.31,5.57,5.57,0,0,1,.28-1.78,4.84,4.84,0,0,1,.77-1.5,3.92,3.92,0,0,1,1.19-1,3,3,0,0,1,1.52-.39,2.82,2.82,0,0,1,1.11.22,2.53,2.53,0,0,1,.86.62,3,3,0,0,1,.55,1,4,4,0,0,1,.19,1.3,5.51,5.51,0,0,1-.28,1.77,5,5,0,0,1-.77,1.51,3.94,3.94,0,0,1-1.19,1A3,3,0,0,1,89.81,81.29Zm.06-.57a2.22,2.22,0,0,0,1.21-.35,3.2,3.2,0,0,0,.94-.93,4.44,4.44,0,0,0,.6-1.32,5.67,5.67,0,0,0,.21-1.54,3,3,0,0,0-.54-1.89A1.86,1.86,0,0,0,90.78,74a2.13,2.13,0,0,0-.84.16,2.28,2.28,0,0,0-.71.44,3.47,3.47,0,0,0-.6.66,4.54,4.54,0,0,0-.44.85,5.29,5.29,0,0,0-.37,2,3,3,0,0,0,.54,1.89A1.85,1.85,0,0,0,89.87,80.72Z"/><path class="cls-3" d="M94.82,81.19l.92-7.64h.33a.25.25,0,0,1,.27.28l-.22,2.26a6,6,0,0,1,1.19-1.92,2,2,0,0,1,1.42-.68,1.93,1.93,0,0,1,.65.13l-.13.68a2.14,2.14,0,0,0-.66-.13,1.86,1.86,0,0,0-1.47.81A6.93,6.93,0,0,0,96,77.31l-.46,3.88Z"/></svg>