<svg id="Camada_1" data-name="Camada 1" xmlns="http://www.w3.org/2000/svg" viewBox="0 0 174.83 67.1"><defs><style>.cls-1{fill:none;}.cls-2,.cls-3{fill:#b0b0af;}.cls-3{stroke:#b0b0af;stroke-miterlimit:10;stroke-width:0.1px;}</style></defs><title>ass-carlos-espanhol</title><path class="cls-1" d="M42.83,2.52C34.75,4,26.31,16.78,30.7,26.48c6.28-3.66,17-7.94,18.5-16.08C50.19,5.13,47.69,1.63,42.83,2.52Z"/><path d="M95.3,17.07c.51-4.62,3-10.17-.31-13a5.78,5.78,0,0,0-1.21,5.46c1.18.07.35-1.87,1.21-2.12.22,3.19,0,9.07-2.42,9.7,1.69,2.26,0,4.81-1.21,7-6.14.46-14-.35-20-.61-.62.49,0,2.24-.61,2.73C65.08,27.21,54.55,29.59,51,25c3.11-.53,8.36-1.87,11.83-.61,1.5.55,1.56,2.1,3,2.13-.11-5.4-13.27-4.05-16.68-1.52,3.13,6.19,16,3.54,22.44,2.12.79-.62.63-2.2,1.82-2.42,5,1.26,12.58.11,17,1.21-.71,1.72-1.73,3.13-1.82,5.46,6-.87,3.11-8.66,6.36-12.13,1.13.19,1.81.82,3.34.6C98,18.26,95.4,18.9,95.3,17.07Z"/><path d="M146.25,11.62a2.93,2.93,0,0,0,0,2.73c.73.12.66-.56,1.52-.31C147.79,12.7,147.72,11.46,146.25,11.62Z"/><path d="M173.55,14c.59-.58-.32-1.22-.3-2.12-1.82-.38-2.42,1.68-1.82,2.73C172.59,14.59,172.24,13.22,173.55,14Z"/><path d="M142.61,18.29c-1.48.73-.89,4.15-.6,5.76-1.9,1.8-5.24.12-7.59-.3-2.14-1-1.67-4.6-4.24-5.16,2.13,7.91-8.81,8.33-10.92,3.64.23-.48,1-.45.91-1.21-.75-.4-1.26.89-1.52,0,0-2.52-.14-5.2,1.82-5.77.22,1.21,0,2.81,1.21,3,.78-2.06.11-5.11-1.82-5.46-2.67,1.17-3.16,6.7-2.42,9.4-4.38,1.49-12-.22-15.17,2.43,4.8.13,11.61-.32,15.77-1.82,1.81,3.82,12.1,4.44,13.65,0,2.07,3.49,10.33,1.87,12.44,3.64C143,24.4,144.45,19.68,142.61,18.29Z"/><path d="M173.25,22.53c-1.95.65-2.54,1.68-4.55,1.52-2.64-.22-3.16-2.65-4.86-3.94-.73,7-9.19,4.31-13.64,2.42.19,2.24,5.86,3.79,9.4,3.34,2.3-.29,3.44-1.74,4.85-2.43,1.37,1.32,5.08,2.64,7.28,1.22,1.08.54.88,2.35,2.42,2.42V25.87C172.9,25.71,174.05,23.14,173.25,22.53Z"/><path d="M50.41,9.19A6.94,6.94,0,0,0,49.2,3.7h0a5.29,5.29,0,0,0-1-1.26L48,2.21h-.1c-2.6-1.95-6.06,0-6.06,0h0C32.81,6,25.27,16.49,29.48,27.38c-3.69,1.9-8,4.41-12.43,6.38-4,1.81-9.88,4.5-14.56,1.81-.28-1.29,2,0,1.82-1.21-1-.74-3.15-.13-3.64.61v.3c.43,1.5,1.94,1.91,3,2.73H8.56c8.28-2,14.19-6.43,21.53-9.4,1.14,1.09,3.54,3.78,5.46,2.12-1.85-.48-3.56-1.09-3.94-3C37.55,23.58,49.29,18.13,50.41,9.19ZM30.7,26.48c-4.39-9.7,4.05-22.5,12.13-24,4.86-.89,7.36,2.61,6.37,7.88C47.66,18.54,37,22.82,30.7,26.48Z"/><path class="cls-2" d="M49.88,63a.39.39,0,0,1,.3.13L51,64a4.62,4.62,0,0,1-1.68,1.29,5.71,5.71,0,0,1-2.38.45,5.53,5.53,0,0,1-2.24-.43A4.86,4.86,0,0,1,43,64.15a5.13,5.13,0,0,1-1.08-1.81,6.75,6.75,0,0,1-.37-2.29A6.17,6.17,0,0,1,42,57.74a5.43,5.43,0,0,1,1.17-1.81A5.62,5.62,0,0,1,45,54.75a6.32,6.32,0,0,1,2.34-.42,5.6,5.6,0,0,1,2.17.4,5.25,5.25,0,0,1,1.6,1.06l-.7,1a.49.49,0,0,1-.16.16.4.4,0,0,1-.26.07.64.64,0,0,1-.37-.13,3.48,3.48,0,0,0-.47-.31,5.24,5.24,0,0,0-.72-.3,4.12,4.12,0,0,0-2.56.14,3.22,3.22,0,0,0-1.14.78,3.82,3.82,0,0,0-.74,1.24,5.43,5.43,0,0,0,0,3.32A3.86,3.86,0,0,0,44.66,63a3.15,3.15,0,0,0,1.08.77,3.26,3.26,0,0,0,1.33.27,6,6,0,0,0,.77,0,2.91,2.91,0,0,0,.63-.15,2.14,2.14,0,0,0,.55-.26,2.89,2.89,0,0,0,.51-.39L49.7,63A.37.37,0,0,1,49.88,63Z"/><path class="cls-2" d="M58.67,65.63h-.86a.83.83,0,0,1-.42-.08.51.51,0,0,1-.23-.32L57,64.66a6.3,6.3,0,0,1-.6.48,3.91,3.91,0,0,1-.59.34,3.63,3.63,0,0,1-.66.21,3.67,3.67,0,0,1-.77.07,3,3,0,0,1-.93-.14,2,2,0,0,1-.73-.4,1.86,1.86,0,0,1-.48-.68,2.46,2.46,0,0,1-.17-.94,1.86,1.86,0,0,1,.24-.89,2.34,2.34,0,0,1,.78-.79,5.16,5.16,0,0,1,1.46-.58,9.17,9.17,0,0,1,2.27-.23v-.47a1.74,1.74,0,0,0-.34-1.19,1.22,1.22,0,0,0-1-.39,2.41,2.41,0,0,0-.77.11,4.56,4.56,0,0,0-.54.25l-.42.24a.88.88,0,0,1-.42.11.59.59,0,0,1-.33-.1.78.78,0,0,1-.23-.25l-.35-.61a4.72,4.72,0,0,1,3.3-1.25,3.28,3.28,0,0,1,1.25.22,2.76,2.76,0,0,1,.92.64,2.68,2.68,0,0,1,.57,1,3.51,3.51,0,0,1,.2,1.24ZM55,64.44a2.26,2.26,0,0,0,.54,0,1.86,1.86,0,0,0,.47-.16,2.26,2.26,0,0,0,.42-.26,3.48,3.48,0,0,0,.42-.37V62.27a7.78,7.78,0,0,0-1.4.11,3.73,3.73,0,0,0-.9.27A1.13,1.13,0,0,0,54,63a.79.79,0,0,0-.14.47.87.87,0,0,0,.29.73A1.33,1.33,0,0,0,55,64.44Z"/><path class="cls-2" d="M60.55,65.63V57.7h1.12a.61.61,0,0,1,.41.11.64.64,0,0,1,.16.37l.11,1a3.82,3.82,0,0,1,1-1.16,2.11,2.11,0,0,1,1.28-.42,1.69,1.69,0,0,1,1,.27l-.25,1.43a.29.29,0,0,1-.1.19.33.33,0,0,1-.21.06,1.68,1.68,0,0,1-.32,0,1.88,1.88,0,0,0-.53-.06,1.6,1.6,0,0,0-1,.33,2.49,2.49,0,0,0-.72,1v4.93Z"/><path class="cls-2" d="M68.9,54.15V65.63H67V54.15Z"/><path class="cls-2" d="M74.44,57.58a4.16,4.16,0,0,1,1.61.29,3.51,3.51,0,0,1,1.24.81A3.69,3.69,0,0,1,78.08,60a5.46,5.46,0,0,1,0,3.39,3.64,3.64,0,0,1-.79,1.29,3.4,3.4,0,0,1-1.24.82,4.61,4.61,0,0,1-3.22,0,3.44,3.44,0,0,1-1.25-.82,3.64,3.64,0,0,1-.79-1.29,5.27,5.27,0,0,1,0-3.39,3.69,3.69,0,0,1,.79-1.28,3.55,3.55,0,0,1,1.25-.81A4.16,4.16,0,0,1,74.44,57.58Zm0,6.7a1.7,1.7,0,0,0,1.47-.66,4.3,4.3,0,0,0,0-3.91,1.95,1.95,0,0,0-3,0,3.34,3.34,0,0,0-.48,2A3.29,3.29,0,0,0,73,63.61,1.69,1.69,0,0,0,74.44,64.28Z"/><path class="cls-2" d="M84.55,59.25a.44.44,0,0,1-.16.17.38.38,0,0,1-.22,0,.65.65,0,0,1-.29-.07l-.37-.18a3.79,3.79,0,0,0-.48-.17A2.25,2.25,0,0,0,82.4,59a1.49,1.49,0,0,0-.89.24.76.76,0,0,0-.32.63.61.61,0,0,0,.17.43,1.54,1.54,0,0,0,.44.3,4,4,0,0,0,.62.24c.23.07.47.14.71.23a6.15,6.15,0,0,1,.71.28,2.36,2.36,0,0,1,.62.4,1.79,1.79,0,0,1,.44.58,1.87,1.87,0,0,1,.17.82,2.64,2.64,0,0,1-.21,1.06,2.27,2.27,0,0,1-.61.83,2.79,2.79,0,0,1-1,.55,4.37,4.37,0,0,1-1.36.2,5.29,5.29,0,0,1-.8-.07,4.61,4.61,0,0,1-.75-.21,4,4,0,0,1-.66-.31,3.4,3.4,0,0,1-.54-.38l.44-.73a.54.54,0,0,1,.49-.27.61.61,0,0,1,.34.1l.37.21a3.24,3.24,0,0,0,.49.22,2.09,2.09,0,0,0,.71.1,2,2,0,0,0,.59-.08,1.17,1.17,0,0,0,.4-.21.76.76,0,0,0,.23-.31.86.86,0,0,0,.08-.36.64.64,0,0,0-.17-.45,1.33,1.33,0,0,0-.44-.31,3.78,3.78,0,0,0-.63-.24c-.23-.07-.47-.14-.72-.23a7.22,7.22,0,0,1-.72-.29,2.42,2.42,0,0,1-.62-.42,1.84,1.84,0,0,1-.44-.62,2.22,2.22,0,0,1-.17-.9,2.45,2.45,0,0,1,.19-.93,2.24,2.24,0,0,1,.57-.77,2.74,2.74,0,0,1,.94-.52,3.88,3.88,0,0,1,1.29-.2,4,4,0,0,1,1.5.27,3.52,3.52,0,0,1,1.12.71Z"/><path class="cls-2" d="M96.74,54.46v1.65H91.79v3.31H96v1.66H91.79v4.55h-2.1V54.46Z"/><path class="cls-2" d="M101.05,57.58a3.85,3.85,0,0,1,1.38.24,3,3,0,0,1,1.09.7,3.25,3.25,0,0,1,.71,1.13,4.21,4.21,0,0,1,.25,1.52,1.84,1.84,0,0,1,0,.36.48.48,0,0,1-.07.23.28.28,0,0,1-.13.11.48.48,0,0,1-.22,0h-4.9a2.75,2.75,0,0,0,.66,1.79,2,2,0,0,0,1.51.57,2.69,2.69,0,0,0,.8-.1,6,6,0,0,0,.59-.24l.44-.24a.68.68,0,0,1,.37-.11.42.42,0,0,1,.2,0,.66.66,0,0,1,.15.14l.55.69a3,3,0,0,1-.71.62,3.93,3.93,0,0,1-.82.41,4.51,4.51,0,0,1-.88.21,6.33,6.33,0,0,1-.86.06,4.34,4.34,0,0,1-1.54-.27,3.54,3.54,0,0,1-1.23-.82,3.76,3.76,0,0,1-.83-1.32,5.22,5.22,0,0,1-.3-1.84A4.55,4.55,0,0,1,97.5,60a3.73,3.73,0,0,1,.76-1.24,3.42,3.42,0,0,1,1.19-.84A3.9,3.9,0,0,1,101.05,57.58Zm0,1.37a1.79,1.79,0,0,0-1.31.47,2.35,2.35,0,0,0-.6,1.34h3.59a2.63,2.63,0,0,0-.1-.7,1.71,1.71,0,0,0-.31-.58,1.62,1.62,0,0,0-.53-.39A1.88,1.88,0,0,0,101.09,59Z"/><path class="cls-2" d="M108.07,54.15V65.63h-1.91V54.15Z"/><path class="cls-2" d="M114,54.33l-1.91,2a.79.79,0,0,1-.64.27h-1.14l1.1-1.88a.79.79,0,0,1,.27-.3.8.8,0,0,1,.46-.11Zm-1.78,3.37v7.93h-1.91V57.7Z"/><path class="cls-2" d="M120,59.38a.91.91,0,0,1-.17.17.37.37,0,0,1-.23.06.52.52,0,0,1-.29-.09l-.33-.2a2.88,2.88,0,0,0-.46-.2,2.1,2.1,0,0,0-.66-.09,2,2,0,0,0-.88.18,1.63,1.63,0,0,0-.63.53,2.22,2.22,0,0,0-.38.82,4.55,4.55,0,0,0-.12,1.09,4.28,4.28,0,0,0,.13,1.13,2.37,2.37,0,0,0,.39.83,1.59,1.59,0,0,0,.62.51,1.83,1.83,0,0,0,.82.18,2.18,2.18,0,0,0,.74-.11,2.26,2.26,0,0,0,.47-.25l.34-.25a.54.54,0,0,1,.32-.11.39.39,0,0,1,.35.18l.55.69a3.08,3.08,0,0,1-.69.62,3.58,3.58,0,0,1-.77.41,3.8,3.8,0,0,1-.82.21,6.18,6.18,0,0,1-.85.06,3.57,3.57,0,0,1-1.38-.27,3.33,3.33,0,0,1-1.13-.8,3.92,3.92,0,0,1-.77-1.29,5.2,5.2,0,0,1-.28-1.74,5,5,0,0,1,.25-1.62,3.92,3.92,0,0,1,.74-1.29,3.53,3.53,0,0,1,1.21-.85,4.08,4.08,0,0,1,1.65-.31,3.68,3.68,0,0,1,2.76,1.11Z"/><path class="cls-2" d="M124.11,55.39a1.24,1.24,0,0,1-.1.47,1.46,1.46,0,0,1-.27.38,1.3,1.3,0,0,1-.39.25,1.12,1.12,0,0,1-.48.1,1.1,1.1,0,0,1-.47-.1,1.39,1.39,0,0,1-.38-.25,1.42,1.42,0,0,1-.26-.38,1.24,1.24,0,0,1-.1-.47,1.29,1.29,0,0,1,.1-.48,1.16,1.16,0,0,1,.26-.38,1.22,1.22,0,0,1,.38-.26,1.1,1.1,0,0,1,.47-.1,1.12,1.12,0,0,1,.48.1,1.16,1.16,0,0,1,.39.26,1.19,1.19,0,0,1,.27.38A1.29,1.29,0,0,1,124.11,55.39Zm-.29,2.31v7.93h-1.91V57.7Z"/><path class="cls-2" d="M129.37,57.58a4.19,4.19,0,0,1,1.61.29,3.47,3.47,0,0,1,1.23.81A3.69,3.69,0,0,1,133,60a5.27,5.27,0,0,1,0,3.39,3.64,3.64,0,0,1-.79,1.29,3.37,3.37,0,0,1-1.23.82,4.64,4.64,0,0,1-3.23,0,3.32,3.32,0,0,1-1.24-.82,3.66,3.66,0,0,1-.8-1.29,5.27,5.27,0,0,1,0-3.39,3.71,3.71,0,0,1,.8-1.28,3.42,3.42,0,0,1,1.24-.81A4.18,4.18,0,0,1,129.37,57.58Zm0,6.7a1.69,1.69,0,0,0,1.46-.66,4.22,4.22,0,0,0,0-3.91,1.95,1.95,0,0,0-3,0,3.34,3.34,0,0,0-.48,2,3.29,3.29,0,0,0,.48,1.94A1.69,1.69,0,0,0,129.37,64.28Z"/><path class="cls-3" d="M72.55,47.08a.27.27,0,0,1-.2-.06.25.25,0,0,1-.06-.17l.25-2.34a6.83,6.83,0,0,1-.65,1.09,4.8,4.8,0,0,1-.76.84,3.07,3.07,0,0,1-.83.55,2.33,2.33,0,0,1-.89.19,1.74,1.74,0,0,1-.84-.19,1.62,1.62,0,0,1-.61-.52,2.47,2.47,0,0,1-.37-.82,4,4,0,0,1-.13-1.08,5.69,5.69,0,0,1,.12-1.15,6,6,0,0,1,.34-1.14,5.35,5.35,0,0,1,.53-1,4.58,4.58,0,0,1,.71-.85,3.32,3.32,0,0,1,.88-.57,2.44,2.44,0,0,1,1-.21,2.38,2.38,0,0,1,1.1.26,2.1,2.1,0,0,1,.83.79l.54-4.34h.68L72.89,47.08Zm-2.91-.47a1.77,1.77,0,0,0,.84-.23,3.31,3.31,0,0,0,.82-.67,5.69,5.69,0,0,0,.74-1,9.07,9.07,0,0,0,.61-1.33l.26-2.14a1.93,1.93,0,0,0-.79-.81,2.19,2.19,0,0,0-1-.24,2.13,2.13,0,0,0-.87.19,2.64,2.64,0,0,0-.73.52,3.65,3.65,0,0,0-.58.75,5,5,0,0,0-.43.91,5.57,5.57,0,0,0-.27,1,5.69,5.69,0,0,0-.09,1,2.64,2.64,0,0,0,.38,1.54A1.24,1.24,0,0,0,69.64,46.61Z"/><path class="cls-3" d="M77,39.72l-.9,7.36h-.69l.9-7.36Zm.54-2.54a.54.54,0,0,1-.06.25.7.7,0,0,1-.34.34.48.48,0,0,1-.23,0,.47.47,0,0,1-.24,0,.66.66,0,0,1-.2-.14.69.69,0,0,1-.13-.2.65.65,0,0,1,0-.5.74.74,0,0,1,.13-.21,1,1,0,0,1,.2-.15.6.6,0,0,1,.24,0,.64.64,0,0,1,.23,0,.75.75,0,0,1,.2.15.46.46,0,0,1,.14.21A.54.54,0,0,1,77.56,37.18Z"/><path class="cls-3" d="M78.61,47.08l.88-7.38h.32a.23.23,0,0,1,.26.26l-.21,2.19A5.82,5.82,0,0,1,81,40.29a1.94,1.94,0,0,1,1.38-.65,1.75,1.75,0,0,1,.62.12l-.13.66a1.89,1.89,0,0,0-.63-.12,1.82,1.82,0,0,0-1.43.78,6.74,6.74,0,0,0-1.08,2.25l-.45,3.75Z"/><path class="cls-3" d="M88.79,41.13a2.12,2.12,0,0,1-.08.57,1.41,1.41,0,0,1-.29.52,2.42,2.42,0,0,1-.56.46,4.12,4.12,0,0,1-.91.4,11.21,11.21,0,0,1-1.33.33c-.51.09-1.11.18-1.8.25l0,.31v.3a2.61,2.61,0,0,0,.5,1.72,1.79,1.79,0,0,0,1.5.63,2.66,2.66,0,0,0,1.27-.31A3,3,0,0,0,87.5,46l.34-.28c.09-.09.18-.16.25-.22a.3.3,0,0,1,.2-.08.18.18,0,0,1,.15.07l.17.19a8.53,8.53,0,0,1-.71.67,4.14,4.14,0,0,1-.7.45,2.65,2.65,0,0,1-.73.26,3.44,3.44,0,0,1-.8.09A2.65,2.65,0,0,1,84.58,47a2.13,2.13,0,0,1-.81-.57,2.56,2.56,0,0,1-.49-.91,3.78,3.78,0,0,1-.17-1.2,5.32,5.32,0,0,1,.11-1.12,4.84,4.84,0,0,1,.33-1.08,4.38,4.38,0,0,1,.54-1,4.23,4.23,0,0,1,.73-.79,3.47,3.47,0,0,1,.92-.52,3,3,0,0,1,1.09-.19,2.44,2.44,0,0,1,.91.15,1.91,1.91,0,0,1,.61.37,1.67,1.67,0,0,1,.34.49A1.35,1.35,0,0,1,88.79,41.13Zm-2-1a2.26,2.26,0,0,0-1.07.26,2.7,2.7,0,0,0-.84.67,3.77,3.77,0,0,0-.62,1,5.78,5.78,0,0,0-.36,1.16,16,16,0,0,0,1.62-.25,10.83,10.83,0,0,0,1.15-.28,4.12,4.12,0,0,0,.77-.33,1.74,1.74,0,0,0,.45-.37.91.91,0,0,0,.22-.39,1.4,1.4,0,0,0,.06-.41,1.09,1.09,0,0,0-.07-.34.93.93,0,0,0-.24-.33,1.3,1.3,0,0,0-.42-.25A2,2,0,0,0,86.79,40.13Z"/><path class="cls-3" d="M94.36,46.45a3.62,3.62,0,0,1-.68.45,2.63,2.63,0,0,1-.69.22,4.35,4.35,0,0,1-.74.06,2.51,2.51,0,0,1-1.1-.22,2.18,2.18,0,0,1-.79-.61,2.7,2.7,0,0,1-.46-.93,4.37,4.37,0,0,1-.16-1.18A5.82,5.82,0,0,1,90.22,42a5.23,5.23,0,0,1,.55-1,4.06,4.06,0,0,1,.73-.76,3.56,3.56,0,0,1,.89-.5,2.88,2.88,0,0,1,1-.18,2.59,2.59,0,0,1,.65.07,2.63,2.63,0,0,1,.54.2,2.36,2.36,0,0,1,.44.32,2.47,2.47,0,0,1,.37.42l-.21.24a.17.17,0,0,1-.15.08s-.11,0-.18-.12a2.77,2.77,0,0,0-.29-.25,2.25,2.25,0,0,0-.47-.26,1.9,1.9,0,0,0-.73-.11,2.14,2.14,0,0,0-1.15.33,3.3,3.3,0,0,0-.94.89,4.74,4.74,0,0,0-.62,1.3,5.19,5.19,0,0,0-.22,1.53,3.59,3.59,0,0,0,.11.95,2.18,2.18,0,0,0,.36.75,1.61,1.61,0,0,0,.6.5,1.91,1.91,0,0,0,.86.18,2.53,2.53,0,0,0,.7-.09,3.16,3.16,0,0,0,.55-.21,2.19,2.19,0,0,0,.42-.28l.33-.27.24-.22a.29.29,0,0,1,.18-.08.21.21,0,0,1,.15.07l.16.2A5.37,5.37,0,0,1,94.36,46.45Z"/><path class="cls-3" d="M96.88,45.85v-.11a1.91,1.91,0,0,1,0-.2c0-.09,0-.21,0-.35s0-.32.07-.53l.5-4.19h-1c-.1,0-.15,0-.15-.14l0-.3,1.16-.09.49-2.63a.19.19,0,0,1,.07-.12.13.13,0,0,1,.12,0h.34L98.25,40h2.14l-.06.52H98.19l-.51,4.16c0,.2,0,.37-.06.49s0,.24,0,.32,0,.14,0,.18v.09a.91.91,0,0,0,.22.69.83.83,0,0,0,.58.22,1.23,1.23,0,0,0,.44-.08,1.91,1.91,0,0,0,.32-.17,1.24,1.24,0,0,0,.23-.17.29.29,0,0,1,.14-.08l.06,0,0,0,.13.32A2.37,2.37,0,0,1,99,47a2,2,0,0,1-.84.19,1.31,1.31,0,0,1-1-.33A1.35,1.35,0,0,1,96.88,45.85Z"/><path class="cls-3" d="M103.6,47.18a2.65,2.65,0,0,1-1.07-.21,2.27,2.27,0,0,1-.83-.6,2.66,2.66,0,0,1-.53-.95,3.81,3.81,0,0,1-.19-1.27,5.83,5.83,0,0,1,.26-1.72A4.86,4.86,0,0,1,102,41a3.85,3.85,0,0,1,1.16-1,3,3,0,0,1,1.46-.37,2.7,2.7,0,0,1,1.08.21,2.36,2.36,0,0,1,.83.6,2.82,2.82,0,0,1,.53,1,4.16,4.16,0,0,1,.19,1.26,5.48,5.48,0,0,1-.27,1.72,5,5,0,0,1-.75,1.45,3.81,3.81,0,0,1-1.15,1A2.93,2.93,0,0,1,103.6,47.18Zm.06-.56a2.21,2.21,0,0,0,1.18-.33,3.21,3.21,0,0,0,.9-.9,4.28,4.28,0,0,0,.58-1.28,5.24,5.24,0,0,0,.21-1.48A2.83,2.83,0,0,0,106,40.8a1.77,1.77,0,0,0-1.46-.64,2.15,2.15,0,0,0-.8.15,2.51,2.51,0,0,0-.7.42,3.59,3.59,0,0,0-.57.65,3.76,3.76,0,0,0-.43.82,4.65,4.65,0,0,0-.27.94,5.66,5.66,0,0,0-.09,1A2.85,2.85,0,0,0,102.2,46,1.78,1.78,0,0,0,103.66,46.62Z"/><path class="cls-3" d="M108.46,47.08l.89-7.38h.31a.23.23,0,0,1,.26.26l-.21,2.19a5.82,5.82,0,0,1,1.15-1.86,1.94,1.94,0,0,1,1.38-.65,1.75,1.75,0,0,1,.62.12l-.13.66a1.7,1.7,0,0,0-2.06.66,6.74,6.74,0,0,0-1.08,2.25l-.44,3.75Z"/></svg>